/* XPM */
static char * C:\Users\Ronan\Desktop\PIVXimages\CHT\share\pixmaps\bitcoin32_xpm[] = {
"32 32 214 2",
"  	c None",
". 	c #9C9489",
"+ 	c #9E958A",
"@ 	c #9D958A",
"# 	c #9B9389",
"$ 	c #9A9187",
"% 	c #A49B90",
"& 	c #9D948A",
"* 	c #9C9389",
"= 	c #938B81",
"- 	c #9B9388",
"; 	c #9F978C",
"> 	c #A49C91",
", 	c #979085",
"' 	c #9D968B",
") 	c #8D867C",
"! 	c #3D3C3C",
"~ 	c #4F4E4E",
"{ 	c #A59C91",
"] 	c #8F877D",
"^ 	c #454342",
"/ 	c #312922",
"( 	c #2E2821",
"_ 	c #4C4C4C",
": 	c #91897F",
"< 	c #999187",
"[ 	c #605F60",
"} 	c #5D5D5E",
"| 	c #1E1C18",
"1 	c #382F23",
"2 	c #342B20",
"3 	c #454446",
"4 	c #525253",
"5 	c #948C82",
"6 	c #9B9489",
"7 	c #989086",
"8 	c #8E877D",
"9 	c #756D68",
"0 	c #515050",
"a 	c #2E2A24",
"b 	c #3A2E1E",
"c 	c #54432E",
"d 	c #4E3F2B",
"e 	c #352A19",
"f 	c #302922",
"g 	c #5B5A59",
"h 	c #6D6662",
"i 	c #989085",
"j 	c #958D82",
"k 	c #9A9287",
"l 	c #4A4949",
"m 	c #6C6762",
"n 	c #67573E",
"o 	c #6E542E",
"p 	c #805F32",
"q 	c #79592F",
"r 	c #5F4526",
"s 	c #524332",
"t 	c #5C5854",
"u 	c #4C4B4B",
"v 	c #7B7B7C",
"w 	c #8C857B",
"x 	c #9B9288",
"y 	c #5A5A5C",
"z 	c #4D3926",
"A 	c #8E6D3B",
"B 	c #A57637",
"C 	c #D9AC65",
"D 	c #D6A964",
"E 	c #A5783D",
"F 	c #714E2B",
"G 	c #423428",
"H 	c #6F6F71",
"I 	c #B57E36",
"J 	c #EEE1A2",
"K 	c #FFFFC1",
"L 	c #FFFFC7",
"M 	c #EDE599",
"N 	c #986230",
"O 	c #4E4E4F",
"P 	c #CABEB0",
"Q 	c #CCBFB2",
"R 	c #C8BCAF",
"S 	c #BBA892",
"T 	c #69696A",
"U 	c #222223",
"V 	c #AB7434",
"W 	c #DA8B38",
"X 	c #FEF7A0",
"Y 	c #FFFFAC",
"Z 	c #FFFFA3",
"` 	c #FDFAB4",
" .	c #BC6832",
"..	c #88532E",
"+.	c #6B6C6E",
"@.	c #D0BFAB",
"#.	c #D0C0AD",
"$.	c #CEBEAC",
"%.	c #C2A88A",
"&.	c #BCAB97",
"*.	c #C0B09D",
"=.	c #C3B5A5",
"-.	c #B7A692",
";.	c #4A4A4A",
">.	c #B07C3C",
",.	c #DE8033",
"'.	c #FFFA99",
").	c #FFFF6C",
"!.	c #FFFF58",
"~.	c #FFEB79",
"{.	c #C15828",
"].	c #8A5436",
"^.	c #C2AB91",
"/.	c #C6B097",
"(.	c #CAB6A0",
"_.	c #BFA78B",
":.	c #C8B9A9",
"<.	c #C5B7A6",
"[.	c #AB7C41",
"}.	c #D3914F",
"|.	c #FFFE98",
"1.	c #FFFF54",
"2.	c #FFF857",
"3.	c #FFE677",
"4.	c #C87B4A",
"5.	c #854F36",
"6.	c #CCB9A3",
"7.	c #CBB8A2",
"8.	c #A89C8F",
"9.	c #94703C",
"0.	c #BFA163",
"a.	c #FFF48D",
"b.	c #FFE065",
"c.	c #FFD16A",
"d.	c #FFCE81",
"e.	c #C48B5D",
"f.	c #814E37",
"g.	c #AA9B88",
"h.	c #A29381",
"i.	c #6B5335",
"j.	c #796031",
"k.	c #8F7650",
"l.	c #F9E780",
"m.	c #FFD769",
"n.	c #FFC779",
"o.	c #FBC786",
"p.	c #A47656",
"q.	c #683E2E",
"r.	c #563A2B",
"s.	c #715B3E",
"t.	c #554626",
"u.	c #512C09",
"v.	c #8F632E",
"w.	c #AE6E3A",
"x.	c #B0724D",
"y.	c #935E44",
"z.	c #54170B",
"A.	c #3D1F18",
"B.	c #5F4635",
"C.	c #6A513B",
"D.	c #90897F",
"E.	c #A39B8F",
"F.	c #755C44",
"G.	c #3B311F",
"H.	c #423723",
"I.	c #3F301E",
"J.	c #5D3F2E",
"K.	c #6C4331",
"L.	c #673B2E",
"M.	c #4A261C",
"N.	c #331A15",
"O.	c #2F211C",
"P.	c #785E47",
"Q.	c #785E45",
"R.	c #978F85",
"S.	c #90887E",
"T.	c #80644A",
"U.	c #413523",
"V.	c #483828",
"W.	c #3D2C20",
"X.	c #38261D",
"Y.	c #31221C",
"Z.	c #201512",
"`.	c #86694F",
" +	c #7E6348",
".+	c #978F84",
"++	c #938C81",
"@+	c #403626",
"#+	c #362E20",
"$+	c #2A211A",
"%+	c #231B16",
"&+	c #1C1713",
"*+	c #14100E",
"=+	c #938A80",
"-+	c #3F372A",
";+	c #3E3627",
">+	c #3C3426",
",+	c #2F281F",
"'+	c #251E18",
")+	c #261F19",
"!+	c #1F1A16",
"~+	c #191612",
"{+	c #9A9388",
"]+	c #989186",
"^+	c #8D857B",
"/+	c #A1998E",
"(+	c #978E84",
"_+	c #938C82",
":+	c #999186",
"<+	c #958D83",
"[+	c #968E84",
"}+	c #A1998D",
"|+	c #A1988E",
"1+	c #9E958B",
"                                                                ",
"                                                                ",
"                                                                ",
"                                                                ",
"                    .       + @ #   $                           ",
"                %   & *         = - ; > -                       ",
"                      ,                                         ",
"              -                                 ,               ",
"          '   )               ! ~                 {             ",
"            ]               ^ / ( _             : <             ",
"        < ;             [ } | 1 2   3 4           5 6 7         ",
"          8           9 0 a b c d e f g h           i j         ",
"      =   k           l m n o p q r s t u v         w x w       ",
"                    y   z A B C D E F G   H                     ",
"                  y       I J K L M N       O                   ",
"    P Q R S     T U     V W X Y Z `  ...      +.    @.#.$.%.    ",
"    &.*.=.-.    ;.      >.,.'.).!.~.{.].            ^./.(._.    ",
"      :.<.              [.}.|.1.2.3.4.5.              6.7.      ",
"      8.                9.0.a.b.c.d.e.f.              g.h.      ",
"                      i.j.k.l.m.n.o.p.q.r.                      ",
"                      s.t.u.v.w.x.y.z.A.B.C.        @ j         ",
"      D.E.=         F.G.H.I.J.K.L.M.N.O.  P.Q.      R.  D.      ",
"        S.+       T.      U.V.W.X.Y.Z.      `. +    .+-         ",
"        S.6 ++            @+@+#+$+%+&+*+              =+        ",
"            ; ;         -+;+>+,+'+)+!+~+          {+]+          ",
"            ^+  .                               &               ",
"              /+                            (+  .+_+            ",
"                      - :+<+            <+,   E.                ",
"                      <   [+  @ i }+      |+                    ",
"                          1+  ;   7                             ",
"                                                                ",
"                                                                "};
