/* XPM */
static char * C:\Users\Ronan\Desktop\PIVXimages\CHT\share\pixmaps\bitcoin16_xpm[] = {
"16 16 52 1",
" 	c None",
".	c #9B9388",
"+	c #9A9287",
"@	c #3C3937",
"#	c #434241",
"$	c #9A9388",
"%	c #948C82",
"&	c #525151",
"*	c #3F3324",
"=	c #3B3021",
"-	c #4D4C4B",
";	c #989086",
">	c #525252",
",	c #725F47",
"'	c #A37D45",
")	c #9F7944",
"!	c #5C4A3B",
"~	c #616061",
"{	c #CEC2B5",
"]	c #BB7D34",
"^	c #FBF6AD",
"/	c #FAF7AF",
"(	c #9A5D2E",
"_	c #D3C3B0",
":	c #BCAC9B",
"<	c #BBAD9C",
"[	c #C58442",
"}	c #FFFD80",
"|	c #FFF269",
"1	c #A9613A",
"2	c #C1AC94",
"3	c #C2AE97",
"4	c #9B7E4B",
"5	c #FDE578",
"6	c #FECB7B",
"7	c #9A6949",
"8	c #9D958A",
"9	c #6A543C",
"0	c #4A371F",
"a	c #875833",
"b	c #84533B",
"c	c #3D1D16",
"d	c #634C38",
"e	c #989085",
"f	c #372D1E",
"g	c #3F3224",
"h	c #2E211A",
"i	c #1A1310",
"j	c #2F281E",
"k	c #211B15",
"l	c #181411",
"m	c #9C9489",
"                ",
"                ",
"       .+       ",
"                ",
"       @#   $   ",
"  %   &*=-   ;  ",
"     >,')!~     ",
" {    ]^/(   _  ",
" :<   [}|1   23 ",
"      4567      ",
"  8  90abcd     ",
"  e   fghi   %  ",
"   e   jkl  .   ",
"                ",
"       .m       ",
"                "};
